<svg width="204" height="17" viewBox="0 0 204 17" fill="none" xmlns="http://www.w3.org/2000/svg">
<g clip-path="url(#clip0_239_4929)">
<path fill-rule="evenodd" clip-rule="evenodd" d="M117.919 0.467891L114.308 14.2014C114.218 14.5447 114.205 14.9133 114.308 15.2523C114.513 15.9007 115.185 16.71 117.239 16.71H132.233L136.559 0.467891H131.814L128.425 13.2777C128.425 13.2777 123.059 13.2565 121.39 13.2565C119.066 13.2565 119.789 11.6293 119.952 11.0191C120.474 9.02753 122.725 0.463654 122.725 0.463654H117.919V0.467891Z" fill="#164CA2"/>
<path fill-rule="evenodd" clip-rule="evenodd" d="M146.384 16.7101L150.629 0.468018H168.46C168.46 0.468018 171.126 0.535817 171.794 2.65454C171.952 3.16303 172.037 3.70966 171.909 4.23087L168.683 16.4898H164.1L166.868 5.98941C166.868 5.98941 167.074 5.17158 166.38 5.17158H163.214C163.214 5.17158 162.871 5.21395 162.687 5.98941C162.503 6.76486 159.859 16.7144 159.859 16.7144H155.537L158.391 5.96822C158.391 5.96822 158.558 5.17158 157.959 5.14616C157.407 5.12497 154.891 5.14616 154.891 5.14616C154.891 5.14616 154.339 5.18429 154.155 5.91737C153.941 6.7691 151.305 16.7101 151.305 16.7101H146.384Z" fill="#164CA2"/>
<path fill-rule="evenodd" clip-rule="evenodd" d="M12.9086 16.7097L16.0924 4.59913C16.0924 4.59913 5.9935 4.14996 5.9935 8.49758C5.9935 8.49758 5.39869 11.9087 11.9629 11.9087L10.5166 16.447C10.5166 16.447 -0.181353 16.2691 0.614574 8.49758C1.47041 0.1032 12.5706 0.285411 19.0707 0.285411C25.5707 0.285411 35.4428 1.27273 34.9293 8.49758C34.9293 8.49758 34.2104 16.5996 19.935 16.7097L21.0391 11.9087C21.0391 11.9087 28.1339 12.4426 29.1524 8.49758C29.1524 8.49758 31.0951 4.61184 20.6582 4.61184L17.4617 16.7097H12.9044H12.9086Z" fill="#164CA2"/>
<path fill-rule="evenodd" clip-rule="evenodd" d="M50.9881 16.7101C50.9881 16.7101 51.814 12.532 53.2347 9.48099C53.2946 9.34963 53.363 9.21827 53.4315 9.08691C54.7281 6.64614 55.0276 5.22236 60.0856 5.18423H64.9682L61.9214 16.7101H67.3046L71.5966 0.467951H57.9803C57.9803 0.467951 48.2023 0.28574 45.5107 16.7101H50.9924H50.9881Z" fill="#164CA2"/>
<path fill-rule="evenodd" clip-rule="evenodd" d="M83.7247 9.83265C82.9844 12.3794 83.0401 13.6252 83.9687 14.8964C84.8844 16.1464 86.733 16.7143 88.9282 16.7143H98.7789L99.7117 13.1887H90.9309C87.5931 13.1887 88.1066 11.9726 88.2692 11.2734C88.3719 10.8327 88.573 10.0657 88.573 10.0657H95.0432L95.7407 7.40883L89.2919 7.39188C89.2919 7.39188 89.6685 4.77314 91.0293 4.77314C92.3901 4.77314 101.945 4.73924 101.945 4.73924L103.058 0.472137H86.1082" fill="#164CA2"/>
<path fill-rule="evenodd" clip-rule="evenodd" d="M199.412 16.7142L203.738 0.353456C202.788 0.306844 201.864 0.285657 200.999 0.285657C194.499 0.285657 183.78 0.150058 182.543 8.49782C181.306 16.8456 192.573 16.4473 192.573 16.4473L193.896 11.909C188.239 12.7141 187.926 9.27751 187.926 9.27751C187.755 4.06969 198.111 4.59938 198.111 4.59938L194.931 16.7015L199.416 16.71L199.412 16.7142Z" fill="#164CA2"/>
</g>
<defs>
<clipPath id="clip0_239_4929">
<rect width="203.167" height="16.4286" fill="white" transform="translate(0.571289 0.285706)"/>
</clipPath>
</defs>
</svg>
