<svg width="79" height="93" viewBox="0 0 79 93" fill="none" xmlns="http://www.w3.org/2000/svg">
<path fill-rule="evenodd" clip-rule="evenodd" d="M11.5 7C9.01472 7 7 9.01472 7 11.5V81C7 83.4853 9.01472 85.5 11.5 85.5H68.5C70.433 85.5 72 83.933 72 82C72 80.067 70.433 78.5 68.5 78.5H61.25C55.5891 78.5 51 73.9109 51 68.25C51 62.5891 55.5891 58 61.25 58H67.5C69.9853 58 72 55.9853 72 53.5V48.9838C72 48.0625 71.5134 47.2096 70.7201 46.7409C64.7713 43.2257 64.3689 34.7676 69.9571 30.7035L70.6839 30.1748C71.5108 29.5735 72 28.6128 72 27.5904V11.5C72 9.01472 69.9853 7 67.5 7H11.5ZM0 11.5C0 5.14873 5.14873 0 11.5 0H67.5C73.8513 0 79 5.14873 79 11.5V27.5904C79 30.8524 77.4392 33.9174 74.8011 35.836L74.0743 36.3646C72.5586 37.4669 72.6678 39.761 74.2812 40.7144C77.2058 42.4426 79 45.5869 79 48.9838V53.5C79 59.8513 73.8513 65 67.5 65H61.25C59.4551 65 58 66.4551 58 68.25C58 70.0449 59.4551 71.5 61.25 71.5H68.5C74.299 71.5 79 76.201 79 82C79 87.799 74.299 92.5 68.5 92.5H11.5C5.14873 92.5 0 87.3513 0 81V11.5Z" fill="url(#paint0_linear_288_63585)"/>
<path d="M31.75 30.5C31.75 33.2614 29.5114 35.5 26.75 35.5C23.9886 35.5 21.75 33.2614 21.75 30.5C21.75 27.7386 23.9886 25.5 26.75 25.5C29.5114 25.5 31.75 27.7386 31.75 30.5Z" fill="url(#paint1_linear_288_63585)"/>
<path d="M58.75 30.5C58.75 33.2614 56.5114 35.5 53.75 35.5C50.9886 35.5 48.75 33.2614 48.75 30.5C48.75 27.7386 50.9886 25.5 53.75 25.5C56.5114 25.5 58.75 27.7386 58.75 30.5Z" fill="url(#paint2_linear_288_63585)"/>
<path fill-rule="evenodd" clip-rule="evenodd" d="M30.2814 65C28.7768 65 27.3717 65.752 26.5371 67.0038L24.9121 69.4415C23.8398 71.0498 21.6668 71.4844 20.0584 70.4122C18.4501 69.3399 18.0155 67.1669 19.0877 65.5585L20.7128 63.1209C22.8456 59.9217 26.4363 58 30.2814 58H62.9999V65H30.2814Z" fill="url(#paint3_linear_288_63585)"/>
<defs>
<linearGradient id="paint0_linear_288_63585" x1="39.5" y1="3.5" x2="39.5" y2="89" gradientUnits="userSpaceOnUse">
<stop stop-color="#F2D8DE"/>
<stop offset="0.29085" stop-color="#FF6B00"/>
<stop offset="0.509703" stop-color="#FFCE00"/>
<stop offset="0.77" stop-color="#F5F5F5"/>
<stop offset="1" stop-color="#4B5FDD"/>
</linearGradient>
<linearGradient id="paint1_linear_288_63585" x1="26.75" y1="25.5" x2="26.75" y2="35.5" gradientUnits="userSpaceOnUse">
<stop offset="0.405"/>
<stop offset="0.875" stop-color="#FE7B21"/>
</linearGradient>
<linearGradient id="paint2_linear_288_63585" x1="53.75" y1="25.5" x2="53.75" y2="35.5" gradientUnits="userSpaceOnUse">
<stop offset="0.405"/>
<stop offset="0.875" stop-color="#FE7B21"/>
</linearGradient>
<linearGradient id="paint3_linear_288_63585" x1="22.9999" y1="61.5" x2="52.4999" y2="61.5" gradientUnits="userSpaceOnUse">
<stop stop-color="#4C60DE"/>
<stop offset="1" stop-color="#FAE694"/>
</linearGradient>
</defs>
</svg>
