<svg width="31" height="29" viewBox="0 0 31 29" fill="none" xmlns="http://www.w3.org/2000/svg">
<path fill-rule="evenodd" clip-rule="evenodd" d="M0.636116 0C0.284799 0 0 0.284799 0 0.636116V22.8552C0 23.658 0.303595 24.4311 0.849872 25.0194L4.30473 28.74C4.42509 28.8696 4.59399 28.9433 4.77087 28.9433H28.9433C29.9972 28.9433 30.8516 28.0889 30.8516 27.035V3.8167C30.8516 3.56344 30.7014 3.33431 30.4692 3.23334L23.6392 0.263766C23.239 0.0897836 22.8073 0 22.371 0H0.636116ZM4.98723 3.18058L2.50638 1.27223H22.371C22.6328 1.27223 22.8918 1.3261 23.1319 1.43049L27.1571 3.18058H4.98723ZM5.40699 4.45282H29.5794V27.035C29.5794 27.3863 29.2946 27.6711 28.9433 27.6711H5.40699V4.45282ZM8.58753 8.26959C8.06055 8.26959 7.63335 8.69679 7.63335 9.22376C7.63335 9.75074 8.06055 10.1779 8.58753 10.1779H10.4959V22.5822H8.58753C8.06055 22.5822 7.63335 23.0094 7.63335 23.5364C7.63335 24.0634 8.06055 24.4906 8.58753 24.4906H14.3126C14.8396 24.4906 15.2668 24.0634 15.2668 23.5364C15.2668 23.0094 14.8396 22.5822 14.3126 22.5822H12.4042V10.1779H13.4707L22.0951 23.7306C22.3229 24.0885 22.7596 24.2531 23.1669 24.1344C23.5742 24.0158 23.8543 23.6426 23.8543 23.2183V10.1779H25.4446C25.9716 10.1779 26.3988 9.75074 26.3988 9.22376C26.3988 8.69679 25.9716 8.26959 25.4446 8.26959H20.3557C19.8287 8.26959 19.4015 8.69679 19.4015 9.22376C19.4015 9.75074 19.8287 10.1779 20.3557 10.1779H21.946V19.9416L14.7995 8.71149C14.6244 8.43626 14.3208 8.26959 13.9945 8.26959H8.58753Z" fill="#BDBDBD"/>
</svg>
